<?xml version="1.0" encoding="UTF-8" standalone="no"?>
<svg
   xmlns:dc="http://purl.org/dc/elements/1.1/"
   xmlns:cc="http://creativecommons.org/ns#"
   xmlns:rdf="http://www.w3.org/1999/02/22-rdf-syntax-ns#"
   xmlns:svg="http://www.w3.org/2000/svg"
   xmlns="http://www.w3.org/2000/svg"
   viewBox="0 0 150.26025 122.91441"
   height="122.91441"
   width="150.26025"
   xml:space="preserve"
   id="svg2"
   version="1.1"><metadata
     id="metadata8"><rdf:RDF><cc:Work
         rdf:about=""><dc:format>image/svg+xml</dc:format><dc:type
           rdf:resource="http://purl.org/dc/dcmitype/StillImage" /></cc:Work></rdf:RDF></metadata><defs
     id="defs6" /><g
     transform="matrix(1.3333333,0,0,-1.3333333,0,122.91441)"
     id="g10"><g
       transform="translate(2.308826,11.231972)"
       id="g12"><path
         id="path14"
         d="M 8.286052,79.245796 H 104.95665 V 0 H 8.286052 Z" /></g><g
       transform="translate(2.308826,89.488174)"
       id="g16"><path
         id="path18"
         d="m 74.211784,-42.002789 c 0.149643,-0.15065 -1.235244,-0.559909 -1.721008,-0.699119 0.252037,0.184921 0.509201,0.361614 0.771988,0.528984 0.254913,0.162353 0.660484,0.460613 0.94902,0.170135 z" /></g><g
       transform="translate(2.308826,-1.708038)"
       id="g20"><path
         id="path22"
         style="fill:#000000;fill-opacity:1;fill-rule:nonzero;stroke:none"
         d="m 8.286052,92.185806 v 1.5 h -1.5 v -1.5 z m 96.670598,0 h 1.5 v 1.5 h -1.5 z m 0,-79.245796 v -1.5 h 1.5 v 1.5 z m -96.670598,0 h -1.5 v -1.5 h 1.5 z m 9.762383,24.584503 c 0.739971,0.372467 1.037892,1.274281 0.665423,2.014252 -0.372469,0.739971 -1.274281,1.037891 -2.014254,0.66542 z m -17.580847,-11.3843 -1.389645,0.564705 v -8e-6 z m 9.830576,-13.59417 0.193223,-1.487503 h 1e-6 z m 2.160567,46.492051 1.395869,0.549133 v 0 z m -5.779515,18.977455 1.49809,0.07567 v 0 z m 0.864227,1.413795 1.378652,0.591026 v 0 z M 27.42065,28.641533 26.023087,28.096725 v 0 z M 36.549042,8.359039 35.257496,7.596214 v 0 z m 3.943035,-4.622017 1.322681,-0.707466 h 4e-6 z m 0.216061,26.862072 1.499919,-0.01552 v 4e-6 l -1.499919,0.01552 z m 4.86127,35.997357 1.294663,-0.75753 v 0 z m 19.229039,7.286468 0.236824,-1.481186 v 0 z m 22.411171,-1.273193 c 0.823295,-0.09209 1.565361,0.500664 1.657447,1.323959 0.0921,0.823288 -0.500663,1.565354 -1.323951,1.657448 z m -0.770371,-0.526779 c 0.824265,0.08298 1.425194,0.818443 1.342209,1.642708 -0.08298,0.824256 -0.818443,1.425186 -1.6427,1.342208 z m -5.97435,-0.784767 0.621399,-1.365227 v 0 z M 61.367554,61.927544 60.648525,63.24398 v 0 z m -7.657139,-6.596089 -1.314335,0.722859 v 0 z m -2.509045,-7.355167 1.496723,-0.09912 v 0 z m 4.147076,-3.036297 0.626922,1.362705 -3e-6,4e-6 z m 16.978306,3.507446 0.487144,-1.418693 1.91e-4,6.8e-5 z m 1.885032,0.745983 -1.064209,-1.057102 h 8e-6 z m -0.94902,-0.170135 -0.805794,1.265186 v 0 z m -7.826134,-8.114239 -1.146957,0.96669 v 0 z m -8.554157,-17.458698 1.499676,0.03111 v 0 z m 6.617119,-6.072594 0.113148,-1.495727 h 3e-6 z m 9.477169,3.350395 -0.736969,1.306473 v 0 z m 16.874306,14.317704 1.129501,-0.98703 v 0 z m 18.694333,38.830566 -1.49583,0.111717 v 0 z m -0.312,13.650246 1.48923,0.179405 v 0 z M 107.898,93.014 c -0.45739,0.690712 -1.38812,0.879845 -2.07882,0.42244 -0.69072,-0.457398 -0.87985,-1.388123 -0.42244,-2.078827 z M 8.286052,90.685806 h 96.670598 v 3 H 8.286052 Z m 95.170598,1.5 V 12.94001 h 3 v 79.245796 z m 1.5,-77.745796 H 8.286052 v -3 h 96.670598 z m -95.170598,-1.5 v 79.245796 h -3 V 12.94001 Z m 6.913552,27.264175 C 13.657429,38.67289 9.928051,37.182869 6.820053,35.278946 3.608094,33.31134 0.711974,30.726017 -0.922057,26.704918 l 2.77929,-1.12941 c 1.309331,3.222073 3.638478,5.374012 6.529921,7.145279 2.995404,1.83495 6.24756,3.085411 9.661281,4.803726 z M -0.922057,26.70491 C -2.308825,23.292282 -1.03991,19.148369 1.103378,16.130745 3.240686,13.121536 6.728185,10.56971 10.491387,11.05854 l -0.386446,2.975006 C 7.944419,13.752899 5.403064,15.257835 3.549231,17.867928 1.70138,20.469589 1.016868,23.5075 1.857233,25.575516 Z M 10.491388,11.05854 c 6.187121,0.803696 10.037606,3.531838 11.980566,7.598198 1.881194,3.937088 1.832041,8.848694 0.944239,13.789353 -1.771889,9.860641 -7.143734,20.995071 -9.561593,27.141136 L 11.062861,58.48896 C 13.61852,51.992611 18.761488,41.387199 20.463484,31.915512 21.312626,27.190002 21.240185,23.037323 19.765079,19.950119 18.35174,16.992188 15.512917,14.736031 10.10494,14.033546 Z M 13.8546,59.587227 C 11.415583,65.787079 8.494534,71.810532 8.177306,78.091217 L 5.181126,77.93988 c 0.3493,-6.91568 3.576,-13.589866 5.881735,-19.45092 z M 8.177306,78.091217 C 8.148129,78.668884 8.089644,79.290962 8.048414,79.780952 8.001664,80.336555 7.986063,80.642342 7.994837,80.75901 7.996367,80.7794 7.994402,80.71883 7.965832,80.619286 7.95547,80.583183 7.851641,80.181801 7.431113,79.887901 7.179955,79.712372 6.870914,79.61628 6.548898,79.628426 c -0.295443,0.01114 -0.516883,0.109535 -0.643138,0.18119 -0.127124,0.07214 -0.211128,0.147202 -0.252175,0.186752 -0.044283,0.04266 -0.071212,0.07584 -0.080914,0.08815 -0.018333,0.02325 0.029172,-0.0368 0.151929,-0.280845 0.111335,-0.221337 0.25589,-0.535454 0.44019,-0.965363 l 2.757305,1.18206 C 8.560289,80.864326 8.235255,81.55291 7.928443,81.942024 7.850626,82.040718 7.671306,82.257088 7.386475,82.418732 7.039268,82.615776 6.359658,82.799133 5.712563,82.346886 5.251753,82.024826 5.116469,81.566132 5.082256,81.44693 5.029835,81.26429 5.01162,81.094841 5.003282,80.983963 4.972574,80.575584 5.019538,79.998146 5.058979,79.529411 5.10394,78.995064 5.155274,78.451698 5.181126,77.93988 Z M 6.16479,78.83831 C 13.317127,62.154598 19.397652,45.092625 26.023087,28.096725 l 2.795127,1.089615 C 22.237019,46.068752 16.098793,63.279839 8.922095,80.02037 Z M 26.023087,28.096725 c 2.682958,-6.882453 5.378076,-13.971336 9.234409,-20.500511 l 2.583092,1.52565 C 34.132507,15.400047 31.525145,22.242393 28.818214,29.18634 Z M 35.257496,7.596214 c 0.232262,-0.393249 0.51955,-0.956863 0.879574,-1.643669 0.343219,-0.654739 0.739696,-1.395355 1.14529,-2.033905 0.363232,-0.571854 0.88282,-1.311859 1.528156,-1.723709 0.354409,-0.226181 0.959168,-0.4869 1.675206,-0.291244 0.706306,0.193 1.111648,0.719436 1.329036,1.125869 l -2.645363,1.414933 c -0.02172,-0.040596 0.113297,0.240455 0.525563,0.353103 0.422001,0.115318 0.709011,-0.060715 0.729477,-0.073776 0.02204,-0.014061 -0.03732,0.022278 -0.173039,0.186195 -0.125126,0.151123 -0.271541,0.357117 -0.436695,0.617119 -0.331734,0.52227 -0.67725,1.16333 -1.020569,1.81826 -0.326507,0.622872 -0.670299,1.296921 -0.953544,1.776474 z m 6.557266,-4.566658 c 0.374153,0.699524 0.516846,1.581742 0.582504,2.350724 0.06952,0.814231 0.06663,1.711952 0.03692,2.563011 -0.02986,0.855316 -0.08845,1.701667 -0.137806,2.410667 -0.0515,0.739731 -0.08824,1.274651 -0.08824,1.593948 h -3 c 0,-0.451118 0.04792,-1.119003 0.09549,-1.802299 0.04971,-0.714035 0.104599,-1.510948 0.132389,-2.306984 0.02794,-0.800285 0.02687,-1.561996 -0.02787,-2.203125 C 39.349537,4.94912 39.241894,4.58004 39.169392,4.444489 Z m 0.393376,8.91835 c 0,6.237679 -0.0643,12.429551 -8.1e-5,18.635666 l -2.999839,0.03104 c -0.06441,-6.22422 -8e-5,-12.472999 -8e-5,-18.66671 h 3 z m -8.1e-5,18.63567 c 0.05726,5.534313 -0.171417,11.937969 0.303345,18.281178 0.474011,6.333194 1.639626,12.337387 4.352669,16.974167 l -2.589325,1.515052 C 41.21339,62.121914 40.004654,55.567101 39.519772,49.088665 39.035637,42.620239 39.263523,35.959641 39.208218,30.614613 l 2.999839,-0.03104 z m 4.656014,35.255345 c 1.256771,2.147903 4.192104,3.629745 7.901501,4.659896 3.63655,1.009926 7.511684,1.461937 10.269699,1.902916 l -0.473648,2.962372 C 61.974148,74.950401 57.814522,74.459099 53.962807,73.38942 50.183937,72.339966 46.177498,70.605911 44.274746,67.353973 Z m 18.1712,6.562812 c 7.516571,1.201828 14.605613,1.054612 22.174347,0.207993 l 0.333496,2.981407 C 79.798767,76.45739 72.424049,76.621231 64.561623,75.364105 Z m 21.103485,2.66613 c -1.169457,-0.117729 -2.399552,-0.586135 -3.446114,-1.050224 -0.538429,-0.238754 -1.064651,-0.493461 -1.544746,-0.727882 -0.490112,-0.239311 -0.919342,-0.451073 -1.304398,-0.626343 l 1.242798,-2.730461 c 0.432251,0.196739 0.909943,0.432503 1.377922,0.661011 0.477989,0.233398 0.961014,0.466812 1.444534,0.681221 0.997345,0.44226 1.861992,0.740463 2.530495,0.807762 z M 79.843498,72.663414 C 73.405174,69.732933 66.896095,66.656372 60.648525,63.24398 l 1.438057,-2.632865 c 6.150829,3.359546 12.581402,6.400459 18.999714,9.321838 z M 60.648525,63.24398 C 57.542854,61.547676 54.360172,59.625511 52.39608,56.054314 l 2.62867,-1.445717 c 1.507679,2.741325 3.973003,4.31541 7.061832,6.002518 z M 52.39608,56.054314 c -1.271465,-2.31184 -2.496654,-5.037644 -2.691433,-7.978909 l 2.993446,-0.198234 c 0.150525,2.273052 1.115799,4.529792 2.326657,6.731426 z m -2.691433,-7.978909 c -0.0639,-0.964989 0.425301,-1.704697 0.876103,-2.175587 0.455078,-0.475357 1.029975,-0.84996 1.544754,-1.136791 0.972202,-0.541706 2.273731,-1.037472 2.596023,-1.185745 l 1.253838,2.725418 c -0.696831,0.32058 -1.518341,0.595482 -2.389649,1.080971 -0.406971,0.226764 -0.683944,0.429893 -0.837925,0.590736 -0.158256,0.16531 -0.0353,0.12027 -0.0497,-0.09724 l -2.993446,0.198234 z m 5.016876,-4.498119 c 3.645096,-1.676949 6.873379,-1.207035 9.825489,-0.133476 1.444336,0.525241 2.861977,1.209487 4.210511,1.849548 1.374115,0.652202 2.694664,1.267811 4.056373,1.735386 l -0.974289,2.837387 c -1.542,-0.529484 -3.004081,-1.214981 -4.368446,-1.862557 -1.389946,-0.659713 -2.666641,-1.27391 -3.949429,-1.740406 -2.502147,-0.909923 -4.859306,-1.19667 -7.546364,0.03953 l -1.253845,-2.72541 z m 18.092564,3.451526 c -0.01498,-0.0051 -0.0268,-0.0089 -0.03218,-0.01065 -0.0064,-0.002 -0.01144,-0.0036 -0.0145,-0.0045 -0.006,-0.0018 -0.01035,-0.0031 -0.01163,-0.0035 -0.0028,-8.2e-4 -0.0036,-10e-4 -6.33e-4,-1.94e-4 0.0055,0.0016 0.01447,0.0041 0.02913,0.0083 0.02787,0.0079 0.06918,0.01962 0.119735,0.03411 l -0.826446,2.883919 c -0.0462,-0.01324 -0.08382,-0.0239 -0.112229,-0.03196 -0.01348,-0.0038 -0.02702,-0.0077 -0.0377,-0.01073 -0.0051,-0.0015 -0.01251,-0.0036 -0.02018,-0.0059 -0.0037,-0.0011 -0.01014,-0.003 -0.01775,-0.0053 -0.0032,-9.88e-4 -0.02432,-0.0074 -0.05027,-0.01631 l 0.97467,-2.83725 z m 0.08992,0.02353 c 0.245522,0.07036 0.752891,0.218605 1.189705,0.374489 0.204376,0.07293 0.465202,0.172463 0.683464,0.288235 0.08053,0.04271 0.31015,0.165382 0.512955,0.379658 0.09685,0.102329 0.3311,0.372585 0.408455,0.801014 0.09836,0.544757 -0.106621,1.036689 -0.4226,1.354782 l -2.128403,-2.114205 c -0.128235,0.12909 -0.263908,0.315048 -0.347458,0.562664 -0.08536,0.25298 -0.09428,0.505631 -0.0538,0.72982 0.07327,0.405816 0.292633,0.651696 0.36499,0.728146 0.09216,0.09736 0.173469,0.153603 0.201202,0.172272 0.03472,0.02338 0.0573,0.03525 0.05894,0.03612 0.0022,0.0012 -0.02072,-0.01069 -0.07951,-0.03479 -0.05482,-0.02248 -0.124099,-0.04882 -0.206543,-0.07824 -0.339653,-0.121212 -0.767616,-0.247204 -1.007858,-0.316052 l 0.826462,-2.883911 z m 2.371986,3.198178 c -0.30632,0.308376 -0.693954,0.497673 -1.111839,0.550045 -0.385193,0.04828 -0.712273,-0.02958 -0.929687,-0.104763 -0.382279,-0.132187 -0.742058,-0.384762 -0.777497,-0.407334 l 1.611588,-2.530372 c 0.103958,0.06621 0.122154,0.07998 0.171814,0.109287 0.03846,0.02269 0.02457,0.01046 -0.02551,-0.0069 -0.04809,-0.01663 -0.203743,-0.06424 -0.423775,-0.03667 -0.252723,0.03167 -0.48146,0.149327 -0.643509,0.312462 l 2.128418,2.114205 z m -2.819023,0.03795 c -0.292244,-0.18613 -0.576584,-0.381576 -0.853538,-0.584781 l 1.774688,-2.418778 c 0.227112,0.166638 0.457108,0.324577 0.690438,0.473187 l -1.611588,2.530373 z m -0.853538,-0.58478 c -2.943177,-2.15944 -5.268723,-5.401558 -7.313759,-7.827954 l 2.293915,-1.93338 c 2.278495,2.703388 4.233101,5.463207 6.794532,7.342556 z M 64.289673,41.875736 C 59.88414,36.648655 55.215527,31.481049 55.382797,23.419235 l 2.999352,0.06223 c -0.139954,6.745307 3.643806,11.053348 8.201439,16.460895 l -2.293915,1.93338 z M 55.382797,23.419235 c 0.04908,-2.36544 0.682144,-4.429527 2.190472,-5.833122 1.51572,-1.410477 3.62669,-1.886612 6.039471,-1.704086 l -0.226296,2.991455 c -1.931873,-0.146141 -3.085018,0.271896 -3.76947,0.908821 -0.691845,0.643806 -1.195011,1.78035 -1.234825,3.699158 l -2.999352,-0.06223 z m 8.229946,-7.537208 c 3.675328,0.278038 7.167653,1.884979 10.100987,3.53965 l -1.473938,2.612945 c -2.827515,-1.594978 -5.850456,-2.933975 -8.853352,-3.16114 z m 10.100987,3.53965 c 6.653755,3.753318 12.334503,8.992874 17.266838,14.637146 l -2.259003,1.97406 C 83.923492,30.542244 78.498764,25.565254 72.239792,22.034622 Z m 17.266838,14.637146 c 9.716552,11.119064 17.910792,24.309852 19.060672,39.705871 l -2.99167,0.223442 C 105.96999,59.53331 98.257156,46.944855 88.721565,36.032883 Z m 19.060672,39.705871 c 0.34513,4.621018 0.23569,9.340126 -0.31861,13.941376 l -2.97847,-0.35881 c 0.53116,-4.409112 0.63597,-8.933213 0.30541,-13.359124 z m -0.31861,13.941376 c -0.25415,2.10965 -0.64528,3.527031 -1.82463,5.30793 l -2.50126,-1.656387 c 0.84963,-1.283005 1.13118,-2.21534 1.34742,-4.010353 z" /></g></g></svg>