<svg width="113" height="93" viewBox="0 0 113 93" fill="none" xmlns="http://www.w3.org/2000/svg">
<path d="M10.2861 2H106.957V81.2458H10.2861V2Z" fill="url(#paint0_linear_159_334)"/>
<path d="M76.2118 44.9924C76.3614 45.143 74.9765 45.5523 74.4908 45.6915C74.7428 45.5066 75 45.3299 75.2628 45.1625C75.5177 45.0002 75.9232 44.7019 76.2118 44.9924Z" fill="url(#paint1_linear_159_334)"/>
<path d="M19.374 55.3215C12.9181 58.5711 5.41095 60.8024 2.46759 68.0456C0.240455 73.5262 6.37444 82.4092 12.2982 81.6398C35.4884 78.6274 19.4322 47.7901 14.4587 35.1477C12.0864 29.1173 9.01248 22.7684 8.67922 16.1703C8.56916 13.9913 8.02078 11.2047 9.54344 14.7565C16.708 31.4686 22.8173 48.6051 29.4207 65.5443C32.1156 72.4575 34.7668 79.4231 38.549 85.8268C39.5801 87.5724 41.5357 92.2369 42.4921 90.4488C43.3854 88.7786 42.7081 83.7787 42.7081 82.2379C42.7081 76.0222 42.6438 69.8019 42.7081 63.5867C42.8207 52.7074 41.795 37.4582 47.5694 27.5894C50.7289 22.1895 61.453 21.1576 66.7984 20.3029C74.4879 19.0734 81.7198 19.2289 89.3764 20.0854M88.289 20.6104C86.451 20.7954 84.0995 22.1436 82.4649 22.8876C76.0366 25.8136 69.5668 28.8723 63.3676 32.2583C60.2703 33.95 57.4463 35.6981 55.7104 38.8544C54.4693 41.1111 53.374 43.6024 53.2014 46.2095C53.1024 47.7045 56.3293 48.777 57.3484 49.2458C63.6806 52.159 68.5193 47.7325 74.3268 45.7384C74.3329 45.7362 74.394 45.7192 74.4908 45.6915M74.4908 45.6915C74.9765 45.5523 76.3614 45.143 76.2118 44.9924C75.9232 44.7019 75.5177 45.0002 75.2628 45.1625C75 45.3299 74.7428 45.5066 74.4908 45.6915ZM74.4908 45.6915C71.7385 47.7109 69.5984 50.7119 67.4366 53.2768C62.955 58.5941 58.7289 63.3319 58.8825 70.7355C58.9714 75.0197 61.1549 77.1367 65.4996 76.8081C68.8387 76.5555 72.0963 75.0825 74.9768 73.4577C81.4331 69.8157 86.9859 64.7074 91.8511 59.14C101.477 48.1244 109.431 35.2348 110.545 20.3094C110.883 15.7859 110.776 11.1643 110.233 6.65914C109.998 4.70681 109.662 3.53195 108.647 2M10.2861 2H106.957V81.2458H10.2861V2Z" stroke="black" stroke-width="3" stroke-linecap="round"/>
<defs>
<linearGradient id="paint0_linear_159_334" x1="81.9687" y1="2" x2="81.9687" y2="76.8413" gradientUnits="userSpaceOnUse">
<stop offset="0.53" stop-color="#95E8B1"/>
<stop offset="1" stop-color="#33353D"/>
</linearGradient>
<linearGradient id="paint1_linear_159_334" x1="81.9687" y1="2" x2="81.9687" y2="76.8413" gradientUnits="userSpaceOnUse">
<stop offset="0.53" stop-color="#95E8B1"/>
<stop offset="1" stop-color="#33353D"/>
</linearGradient>
</defs>
</svg>
